<?xml version="1.0" standalone="no"?>
<!DOCTYPE svg PUBLIC "-//W3C//DTD SVG 20010904//EN"
 "http://www.w3.org/TR/2001/REC-SVG-20010904/DTD/svg10.dtd">
<svg version="1.0" xmlns="http://www.w3.org/2000/svg"
 width="590.000000pt" height="300.000000pt" viewBox="0 0 590.000000 300.000000"
 preserveAspectRatio="xMidYMid meet">

<g transform="translate(0.000000,300.000000) scale(0.100000,-0.100000)"
fill="#000000" stroke="none">
<path d="M0 1500 l0 -1500 2950 0 2950 0 0 1500 0 1500 -2950 0 -2950 0 0
-1500z m4629 871 c12 -8 12 -12 2 -25 -8 -9 -22 -16 -32 -16 -11 0 -19 -4 -19
-10 0 -5 -15 -10 -33 -10 -21 0 -36 -7 -45 -20 -13 -22 -43 -26 -73 -9 -27 14
-7 39 31 39 16 0 30 7 34 15 3 8 12 15 20 15 10 0 13 -6 10 -15 -5 -11 1 -15
22 -15 27 1 28 1 10 15 -16 12 -17 17 -6 30 14 17 57 20 79 6z m31 -77 c0 -8
-5 -12 -10 -9 -6 4 -8 11 -5 16 9 14 15 11 15 -7z m-262 -13 c-2 -5 5 -16 15
-23 18 -13 17 -15 -15 -24 -19 -6 -44 -7 -56 -3 -25 10 -30 39 -6 39 10 0 14
-6 10 -15 -4 -11 2 -15 21 -15 25 0 25 1 10 18 -10 10 -14 22 -10 25 10 10 33
8 31 -2z m205 -16 c-7 -21 -13 -19 -13 6 0 11 4 18 10 14 5 -3 7 -12 3 -20z
m-53 -28 c0 -5 -4 -5 -10 -2 -5 3 -10 -1 -10 -9 0 -9 -5 -16 -11 -16 -5 0 -7
5 -4 10 4 6 1 19 -7 28 -12 15 -11 16 5 3 15 -12 17 -11 17 5 0 16 2 17 10 4
5 -8 10 -19 10 -23z m-73 -11 c0 -8 -6 -12 -15 -9 -11 5 -11 7 0 14 7 5 13 9
14 9 0 0 1 -6 1 -14z m453 -106 c0 -5 -27 -24 -61 -40 -52 -27 -60 -29 -57
-13 2 10 10 18 18 19 26 2 60 16 60 24 0 5 8 11 18 13 9 3 18 5 20 6 1 0 2 -3
2 -9z m-753 -25 c0 -8 -4 -12 -9 -9 -4 3 -8 9 -8 15 0 5 4 9 8 9 5 0 9 -7 9
-15z m53 -24 c0 -13 -2 -13 -9 -2 -5 7 -14 10 -20 7 -6 -4 -11 -1 -11 7 0 10
7 13 20 10 11 -3 20 -13 20 -22z m39 -7 c7 5 9 1 5 -8 -3 -9 -2 -16 4 -16 6 0
12 6 15 13 3 6 4 2 4 -10 -1 -20 -3 -21 -29 -7 -15 8 -28 22 -28 32 0 13 2 14
9 3 5 -7 14 -11 20 -7z m526 -14 c-4 -6 -11 -8 -16 -5 -5 4 -9 2 -9 -4 0 -11
-51 -41 -70 -41 -6 0 -4 7 5 16 9 9 18 14 21 11 3 -3 14 3 25 14 20 20 55 27
44 9z m145 -134 c-8 -8 -36 -26 -62 -39 -36 -19 -48 -22 -52 -11 -6 15 9 28
23 20 5 -3 14 1 21 9 7 8 16 12 21 9 5 -3 9 -1 9 5 0 5 10 12 23 14 12 2 24 5
27 6 2 0 -2 -5 -10 -13z m-728 -40 c44 -19 57 -35 23 -28 -14 2 -25 9 -25 15
0 6 -3 8 -6 4 -4 -3 -19 0 -35 9 -55 28 -24 28 43 0z m65 -38 c-3 -8 -6 -5 -6
6 -1 11 2 17 5 13 3 -3 4 -12 1 -19z m533 13 c0 -5 -6 -11 -12 -14 -7 -3 -30
-13 -51 -22 -22 -9 -36 -11 -32 -6 3 6 0 11 -7 11 -7 1 10 9 37 19 62 23 65
23 65 12z m-3204 -20 c-4 -5 -2 -11 4 -13 6 -2 0 -9 -12 -17 -15 -9 -19 -9
-11 -1 6 7 9 19 6 26 -3 8 0 14 7 14 6 0 9 -4 6 -9z m2744 -28 c0 -12 -5 -11
-30 4 -16 9 -30 21 -30 25 0 4 14 2 30 -3 17 -6 30 -18 30 -26z m-2795 -3 c10
-11 16 -20 13 -20 -3 0 -13 9 -23 20 -10 11 -16 20 -13 20 3 0 13 -9 23 -20z
m-579 -55 c22 -34 16 -184 -10 -238 -26 -52 -76 -88 -131 -95 -51 -5 -75 8
-75 44 0 25 26 44 58 44 10 0 31 11 46 25 24 22 26 30 26 112 0 64 4 95 16
111 20 29 50 28 70 -3z m283 4 c64 -27 111 -91 96 -131 -3 -8 -52 -37 -108
-64 -92 -44 -99 -49 -70 -52 18 -2 41 2 52 7 32 17 69 13 81 -9 38 -70 -121
-120 -214 -67 -77 43 -108 154 -67 235 23 45 46 66 91 86 48 21 83 20 139 -5z
m199 9 c6 -7 12 -26 14 -43 2 -23 9 -31 28 -33 73 -11 65 -92 -9 -92 -12 0
-21 -6 -21 -16 0 -24 56 -74 83 -74 13 0 32 -9 42 -20 15 -17 16 -24 6 -46
-11 -24 -15 -26 -61 -22 -61 6 -115 45 -141 102 -25 55 -27 216 -3 240 19 19
48 21 62 4z m147 -47 c3 -5 2 -12 -3 -15 -5 -3 -9 1 -9 9 0 17 3 19 12 6z
m3340 -1 c-7 -11 -68 -44 -102 -54 -18 -6 -22 -4 -17 9 4 9 12 14 20 11 7 -3
18 2 25 10 6 8 14 12 17 10 2 -3 14 1 26 9 24 17 40 20 31 5z m-3305 -4 c0 -2
-8 -10 -17 -17 -16 -13 -17 -12 -4 4 13 16 21 21 21 13z m2353 -18 c-17 -29
-6 -39 101 -87 62 -28 116 -51 120 -51 4 0 14 -7 23 -16 9 -8 23 -12 32 -9 11
4 13 3 6 -4 -12 -12 -307 119 -314 140 -2 7 4 18 15 26 22 16 27 17 17 1z
m1087 -3 c7 -8 10 -21 7 -28 -3 -7 -54 -35 -113 -61 -60 -26 -124 -54 -141
-62 -18 -8 -33 -12 -33 -9 0 2 15 11 33 20 49 22 141 75 131 75 -5 0 2 7 14
16 12 8 20 20 17 25 -3 5 2 6 11 2 11 -4 15 -3 10 5 -6 11 19 31 40 32 6 0 17
-7 24 -15z m-872 -16 c2 -4 9 -6 16 -3 8 3 20 -1 27 -8 8 -7 21 -14 28 -16 26
-6 53 -30 42 -37 -6 -3 -11 -2 -11 3 0 5 -31 21 -70 36 -67 26 -111 57 -59 41
13 -4 25 -11 27 -16z m602 -19 c0 -8 -32 -26 -102 -58 -5 -2 -8 1 -8 7 0 6 3
10 8 10 19 -3 25 2 12 11 -12 8 -12 10 5 10 11 0 31 7 45 14 31 17 40 19 40 6z
m-2540 -26 c0 -9 -5 -14 -12 -12 -18 6 -21 28 -4 28 9 0 16 -7 16 -16z m-485
-69 c14 -13 25 -33 25 -45 0 -17 -7 -20 -52 -21 -29 -1 -59 -1 -65 0 -18 3
-16 -25 4 -44 12 -13 27 -15 62 -11 43 6 45 5 27 -9 -39 -30 -99 -17 -121 26
-22 42 -18 67 14 100 36 36 73 37 106 4z m100 15 c12 19 65 11 90 -15 21 -20
25 -34 25 -85 0 -80 -24 -79 -28 1 -5 78 -40 109 -87 75 -15 -11 -20 -27 -21
-72 -1 -33 -6 -60 -13 -62 -7 -2 -11 21 -11 76 0 83 5 99 26 81 8 -7 14 -7 19
1z m290 -15 c22 -21 25 -33 25 -95 0 -64 -3 -73 -26 -95 -16 -15 -39 -25 -55
-25 -28 0 -29 -2 -29 -45 0 -43 -1 -45 -30 -45 -34 0 -53 25 -39 52 5 10 18
18 28 18 28 0 32 25 8 45 -27 23 -9 30 27 11 15 -7 36 -11 47 -9 22 6 49 40
49 62 0 11 -3 11 -18 -2 -35 -32 -95 -20 -117 24 -22 42 -18 67 14 100 38 37
82 39 116 4z m95 -66 c0 -60 -3 -80 -12 -77 -13 5 -24 128 -14 155 13 34 26
-4 26 -78z m70 81 c0 -7 6 -7 19 0 30 15 66 12 92 -9 20 -16 24 -28 24 -82 0
-41 -4 -64 -12 -66 -10 -4 -13 12 -13 56 0 53 -3 62 -25 77 -50 33 -85 -5 -85
-92 0 -24 -4 -44 -10 -44 -6 0 -10 35 -10 85 0 50 4 85 10 85 6 0 10 -5 10
-10z m305 -15 c14 -13 25 -33 25 -45 0 -17 -7 -20 -50 -21 -73 -2 -74 -2 -78
-21 -5 -24 34 -41 74 -33 34 6 48 -8 18 -19 -35 -13 -75 -6 -101 20 -22 22
-25 32 -20 67 10 74 82 103 132 52z m1526 -59 c5 3 9 0 9 -7 0 -7 3 -10 6 -6
4 3 13 -1 21 -9 21 -21 7 -31 -15 -11 -10 9 -33 22 -50 28 -18 6 -32 18 -32
26 0 11 6 10 26 -6 15 -11 30 -18 35 -15z m145 -2 c18 -14 18 -14 -6 -3 -31
14 -36 19 -24 19 6 0 19 -7 30 -16z m454 12 c0 -2 -7 -7 -16 -10 -8 -3 -12 -2
-9 4 6 10 25 14 25 6z m150 -7 c0 -5 -4 -8 -9 -5 -5 3 -11 -1 -15 -9 -8 -21
-26 -19 -26 3 0 14 2 15 10 2 8 -13 10 -12 10 3 0 9 7 17 15 17 8 0 15 -5 15
-11z m155 -13 c10 -7 16 -20 13 -28 -3 -8 -64 -40 -134 -72 -141 -64 -181 -79
-119 -46 91 50 179 110 159 110 -4 0 6 11 22 25 34 29 34 29 59 11z m-1089
-13 c-1 -19 82 -65 263 -146 46 -21 81 -40 79 -42 -5 -5 -352 155 -364 168 -9
8 3 37 15 37 5 0 8 -8 7 -17z m389 -3 c8 -13 -5 -13 -25 0 -13 8 -13 10 2 10
9 0 20 -4 23 -10z m260 -26 c-69 -34 -143 -45 -173 -25 -7 4 11 6 40 3 44 -3
65 1 118 26 89 42 101 39 15 -4z m-381 11 c3 -8 15 -15 26 -15 11 0 20 -4 20
-10 0 -5 3 -9 8 -8 14 4 52 -13 52 -23 0 -12 -22 -6 -86 22 -24 11 -44 26 -44
34 0 20 16 19 24 0z m576 -6 c0 -5 -4 -9 -10 -9 -5 0 -10 7 -10 16 0 8 5 12
10 9 6 -3 10 -10 10 -16z m-41 -20 c-20 -13 -29 -11 -29 5 0 16 33 27 39 13 2
-5 -3 -13 -10 -18z m-3026 -131 l4 -23 8 23 c10 30 21 28 33 -5 9 -25 11 -25
11 -6 1 12 6 25 11 28 13 8 13 -6 0 -39 -12 -32 -27 -33 -33 -3 l-4 22 -8 -22
c-10 -32 -21 -29 -34 8 -13 39 -13 39 -2 39 5 0 12 -10 14 -22z m152 -13 c0
-27 -3 -30 -30 -30 -21 0 -31 5 -33 18 -6 33 6 49 35 45 24 -3 28 -8 28 -33z
m85 -1 c0 -34 -1 -35 -32 -32 -54 5 -53 68 2 68 28 0 30 -3 30 -36z m169 19
c13 -25 -5 -53 -34 -53 -15 0 -26 7 -30 20 -13 41 43 70 64 33z m34 -5 l4 -23
8 23 c9 28 22 28 31 0 l7 -23 10 25 c5 14 11 20 13 14 6 -15 -13 -64 -25 -64
-5 0 -12 10 -14 23 l-4 22 -8 -22 c-10 -32 -21 -29 -34 8 -13 39 -13 39 -2 39
5 0 12 -10 14 -22z m155 -15 c2 -19 -1 -33 -7 -33 -6 0 -11 14 -11 30 0 20 -5
30 -15 30 -10 0 -15 -10 -15 -30 0 -16 -4 -30 -10 -30 -5 0 -10 16 -10 36 0
34 1 35 33 32 28 -3 32 -7 35 -35z m100 17 c5 -13 3 -13 -11 -2 -18 15 -37 8
-37 -14 0 -20 30 -30 42 -13 8 12 9 11 5 -1 -6 -22 -39 -25 -53 -5 -10 13 -10
23 -3 37 12 22 50 21 57 -2z m85 -1 c15 -24 1 -49 -27 -49 -31 0 -48 27 -34
53 11 22 46 19 61 -4z m129 7 c11 -16 10 -56 -2 -56 -5 0 -10 14 -10 30 0 20
-5 30 -15 30 -10 0 -15 -10 -15 -30 0 -16 -4 -30 -10 -30 -5 0 -10 14 -10 30
0 20 -5 30 -15 30 -10 0 -15 -10 -15 -30 0 -16 -4 -30 -10 -30 -5 0 -10 16
-10 35 l0 35 53 -1 c28 -1 55 -7 59 -13z m1543 -46 c3 -5 1 -10 -4 -10 -6 0
-11 5 -11 10 0 6 -6 10 -12 8 -15 -3 -58 23 -58 35 0 9 76 -29 85 -43z m705
36 c0 -12 -8 -17 -45 -25 -5 -1 -17 -9 -25 -16 -14 -12 -16 -12 -17 6 -1 10 1
18 5 15 4 -2 23 4 42 15 43 22 40 22 40 5z m-180 -6 c-8 -5 -19 -10 -25 -10
-5 0 -3 5 5 10 8 5 20 10 25 10 6 0 3 -5 -5 -10z m336 -4 c15 -12 17 -19 9
-32 -9 -15 -295 -149 -295 -138 0 2 27 18 61 36 133 72 152 85 143 99 -3 5 3
6 13 2 10 -3 15 -2 10 2 -7 8 20 45 33 45 3 0 15 -6 26 -14z m-1096 -15 c-8
-16 -6 -21 13 -27 24 -7 224 -101 294 -137 72 -37 39 -29 -48 11 -225 106
-279 133 -279 140 0 8 21 32 27 32 2 0 -1 -9 -7 -19z m720 4 c0 -3 -30 -19
-66 -35 -64 -29 -144 -39 -171 -22 -6 4 19 7 55 7 52 0 79 7 122 27 62 31 60
30 60 23z m-440 -31 c0 5 7 3 15 -4 26 -22 16 -31 -15 -15 -16 9 -30 23 -30
33 1 15 2 15 15 -2 8 -11 15 -16 15 -12z m554 7 c3 -5 -12 -18 -34 -29 -32
-15 -38 -16 -28 -4 11 13 10 15 -5 9 -11 -4 -16 -3 -12 4 4 6 12 8 19 6 6 -3
20 1 31 9 22 17 22 17 29 5z m-384 -11 c8 -5 11 -10 5 -10 -5 0 -17 5 -25 10
-8 5 -10 10 -5 10 6 0 17 -5 25 -10z m550 -119 c0 -11 -25 -32 -36 -30 -5 1
-26 -5 -46 -14 -44 -20 -48 -21 -48 -5 0 6 2 9 5 6 3 -3 29 7 58 23 57 30 67
33 67 20z m-830 -26 c16 -2 91 -47 86 -52 -3 -3 -12 0 -21 7 -8 7 -15 9 -15 4
0 -5 -4 -3 -8 3 -4 7 -19 14 -32 15 -28 3 -50 19 -43 31 2 4 10 4 16 0 7 -4
14 -8 17 -8z m600 1 c0 -2 -7 -7 -16 -10 -8 -3 -12 -2 -9 4 6 10 25 14 25 6z
m-769 -20 c-13 -15 -1 -29 34 -40 11 -3 31 -15 45 -26 21 -17 17 -17 -29 4
-68 31 -78 41 -61 61 7 8 15 15 17 15 3 0 0 -6 -6 -14z m1104 -11 c0 -15 -19
-29 -79 -58 -43 -21 -80 -36 -83 -34 -2 3 20 19 49 36 29 17 49 31 43 31 -5 0
-1 7 9 15 11 8 14 15 7 15 -7 0 -9 5 -6 11 4 5 19 9 33 7 19 -2 27 -9 27 -23z
m-385 10 c0 -6 -56 -35 -67 -35 -4 1 8 9 27 20 39 22 40 22 40 15z m140 -16
c0 -4 -13 -14 -30 -23 -26 -12 -30 -12 -30 0 0 8 9 14 21 14 11 0 18 4 15 8
-3 5 1 9 9 9 8 0 15 -4 15 -8z m-570 -20 c0 -5 -4 -9 -10 -9 -5 0 -10 7 -10
16 0 8 5 12 10 9 6 -3 10 -10 10 -16z m162 0 c32 -17 54 -20 97 -16 31 2 65 8
76 12 16 7 18 6 7 -6 -7 -7 -40 -15 -75 -17 -54 -3 -71 0 -113 21 -27 15 -45
26 -41 27 4 0 26 -9 49 -21z m-102 -30 c0 -4 -6 -9 -14 -12 -15 -6 -36 11 -36
30 0 10 5 10 25 1 14 -6 25 -15 25 -19z m440 11 c0 -9 -61 -30 -69 -24 -2 2 1
9 7 17 13 15 62 21 62 7z m-625 -58 c-3 -3 -11 0 -18 7 -9 10 -8 11 6 5 10 -3
15 -9 12 -12z m755 -2 c-8 -5 -19 -10 -25 -10 -5 0 -3 5 5 10 8 5 20 10 25 10
6 0 3 -5 -5 -10z m-700 -15 c14 -8 21 -14 15 -14 -5 0 -21 6 -35 14 -14 8 -20
14 -15 14 6 0 21 -6 35 -14z m55 -33 c-3 -3 -11 0 -18 7 -9 10 -8 11 6 5 10
-3 15 -9 12 -12z m332 -98 c-3 -3 -12 -4 -19 -1 -8 3 -5 6 6 6 11 1 17 -2 13
-5z m-54 -11 c-7 -2 -19 -2 -25 0 -7 3 -2 5 12 5 14 0 19 -2 13 -5z"/>
<path d="M4577 2349 c8 -8 16 -8 30 0 16 9 14 10 -11 11 -22 0 -27 -3 -19 -11z"/>
<path d="M4445 2300 c-4 -6 5 -10 20 -10 15 0 24 4 20 10 -3 6 -12 10 -20 10
-8 0 -17 -4 -20 -10z"/>
<path d="M1143 1661 c-29 -18 -51 -56 -40 -67 3 -3 36 10 73 29 l69 35 -28 11
c-37 14 -37 14 -74 -8z"/>
<path d="M1695 1540 c-24 -27 -17 -32 46 -28 l54 3 -22 23 c-28 27 -54 28 -78
2z"/>
<path d="M2083 1545 c-46 -32 -20 -115 35 -115 29 0 62 34 62 63 -1 50 -57 80
-97 52z"/>
<path d="M2034 1296 c-7 -19 3 -36 22 -36 10 0 14 8 12 22 -4 26 -26 36 -34
14z"/>
<path d="M2557 1542 c-26 -28 -21 -32 33 -32 52 0 60 8 34 34 -21 21 -47 20
-67 -2z"/>
<path d="M1865 1300 c-3 -5 3 -10 14 -10 12 0 21 5 21 10 0 6 -6 10 -14 10 -8
0 -18 -4 -21 -10z"/>
<path d="M1865 1270 c3 -5 12 -10 20 -10 8 0 17 5 20 10 4 6 -5 10 -20 10 -15
0 -24 -4 -20 -10z"/>
<path d="M1944 1295 c-4 -9 -2 -21 4 -27 15 -15 44 -1 40 19 -4 23 -36 29 -44
8z"/>
<path d="M2120 1285 c0 -20 4 -26 18 -23 9 2 17 12 17 23 0 11 -8 21 -17 23
-14 3 -18 -3 -18 -23z"/>
<path d="M2494 1295 c-7 -18 3 -35 22 -35 8 0 14 10 14 25 0 27 -27 35 -36 10z"/>
</g>
</svg>
