<svg xmlns="http://www.w3.org/2000/svg" viewBox="0 0 32 32" width="32" height="32">
  <defs>
    <linearGradient id="gradient1" x1="0%" y1="0%" x2="100%" y2="100%">
      <stop offset="0%" style="stop-color:#f27935;stop-opacity:1" />
      <stop offset="100%" style="stop-color:#f56038;stop-opacity:1" />
    </linearGradient>
    <linearGradient id="gradient2" x1="0%" y1="0%" x2="100%" y2="100%">
      <stop offset="0%" style="stop-color:#4f7df3;stop-opacity:1" />
      <stop offset="100%" style="stop-color:#00c8ff;stop-opacity:1" />
    </linearGradient>
  </defs>
  
  <!-- Background -->
  <rect x="1" y="1" width="30" height="30" rx="6" ry="6" fill="#ffffff" stroke="#e6e6e6" stroke-width="1" />
  
  <!-- Database icon (JetEngine) -->
  <path d="M16,4C9.4,4,4,6.3,4,9v2v2v2v2v2v2c0,2.7,5.4,5,12,5s12-2.3,12-5v-2v-2v-2v-2v-2V9C28,6.3,22.6,4,16,4z M26,21 c0,1.4-4,3-10,3S6,22.4,6,21v-1.6C8.4,20.9,12,22,16,22s7.6-1.1,10-2.6V21z M26,17c0,1.4-4,3-10,3S6,18.4,6,17v-1.6 C8.4,16.9,12,18,16,18s7.6-1.1,10-2.6V17z M26,13c0,1.4-4,3-10,3S6,14.4,6,13v-1.6C8.4,12.9,12,14,16,14s7.6-1.1,10-2.6V13z M16,12c-6,0-10-1.6-10-3s4-3,10-3s10,1.6,10,3S22,12,16,12z" fill="url(#gradient1)"/>
  
  <!-- Slider layers (Smart Slider) -->
  <g transform="scale(0.75) translate(20, 8)">
    <rect x="2" y="20" width="18" height="4" rx="1" ry="1" fill="url(#gradient2)" />
    <rect x="4" y="16" width="14" height="2" rx="1" ry="1" fill="url(#gradient2)" opacity="0.8" />
    <rect x="6" y="12" width="10" height="2" rx="1" ry="1" fill="url(#gradient2)" opacity="0.6" />
  </g>
</svg>
